# xmcd CD database file
#
# Track frame offsets:
#	150
#	21559
#	45973
#	62084
#	83417
#	109632
#	128078
#	149526
#	167583
#	190097
#	213417
#	240738
#	266363
#
# Disc length: 3914 seconds
#
# Revision: 6
# Processed by: cddbd v1.5.2PL0 Copyright (c) Steve Scherf et al.
# Submitted via: CDex 1.50
#
DISCID=ab0f480d
DTITLE=Till Brönner - Rio
DYEAR=2008
DGENRE=NewAge
TTITLE0=Misterios (Mysteries) (feat. Annie Lennox and Milton Nascimento)
TTITLE1=O Que Sera? (feat. Vanessa da Mata)
TTITLE2=So Danço Samba
TTITLE3=Once I Loved (Amor Em Paz) (feat. Aimee Mann)
TTITLE4=Evening (Tarde) (feat. Milton Nascimento and Luciana Souza)
TTITLE5=Ela e Carioca (feat. Sergio Mendes)
TTITLE6=High Night (Alta Noite) (feat. Melody Gardot)
TTITLE7=Cafe Com Pão
TTITLE8=Lígia
TTITLE9=Sim Ou Näo (feat. Kurt Elling)
TTITLE10=A Rä
TTITLE11=Bonita
TTITLE12=Aquelas Coisas Todas (feat. Luciana Souza)
EXTD=YEAR: 2008
EXTT0=
EXTT1=
EXTT2=
EXTT3=
EXTT4=
EXTT5=
EXTT6=
EXTT7=
EXTT8=
EXTT9=
EXTT10=
EXTT11=
EXTT12=
PLAYORDER=
